ply
format ascii 1.0
comment VCGLIB generated
comment TextureFile 1.jpg
element vertex 8
property float x
property float y
property float z
element face 12
property list uchar int vertex_indices
property list uchar float texcoord
end_header
-0.5 -0.5 -0.5 
0.5 -0.5 -0.5 
-0.5 0.5 -0.5 
0.5 0.5 -0.5 
-0.5 -0.5 0.5 
0.5 -0.5 0.5 
-0.5 0.5 0.5 
0.5 0.5 0.5 
3 2 1 0 6 0.000977 0.669024 0.330976 0.999023 0.000977 0.999023 
3 1 2 3 6 0.332357 0.997642 0.002358 0.667643 0.332357 0.667643 
3 4 2 0 6 0.334310 0.669024 0.664309 0.999023 0.334310 0.999023 
3 2 4 6 6 0.665690 0.997642 0.335691 0.667643 0.665690 0.667643 
3 1 4 0 6 0.667643 0.669024 0.997642 0.999023 0.667643 0.999023 
3 4 1 5 6 0.999023 0.997642 0.669024 0.667643 0.999023 0.667643 
3 6 5 7 6 0.000977 0.335691 0.330976 0.665690 0.000977 0.665690 
3 5 6 4 6 0.332357 0.664309 0.002358 0.334310 0.332357 0.334310 
3 3 6 7 6 0.334310 0.335691 0.664309 0.665690 0.334310 0.665690 
3 6 3 2 6 0.665690 0.664309 0.335691 0.334310 0.665690 0.334310 
3 5 3 7 6 0.667643 0.335691 0.997642 0.665690 0.667643 0.665690 
3 3 5 1 6 0.999023 0.664309 0.669024 0.334310 0.999023 0.334310 
